<svg xmlns="http://www.w3.org/2000/svg" xmlns:xlink="http://www.w3.org/1999/xlink" width="24" height="24" viewBox="0 0 24 24">
<defs>
<g id="phone">
<path d="M6.047 5.25h3.165a2.75 2.75 0 0 1 2.608 1.88l.386 1.156c.18.541.034 1.138-.376 1.534a1.079 1.079 0 0 0-.056 1.493l1.438 1.618a.952.952 0 0 0 1.478-.069 1.43 1.43 0 0 1 1.604-.509l1.123.374a2.75 2.75 0 0 1 1.88 2.61V18.5l-.653.085-.096-.744.096.744h-.003l-.007.001-.026.003a24.601 24.601 0 0 1-1.607.134c-.909.045-2.1.05-3.048-.148-1.075-.225-1.995-.475-2.855-.884-.868-.414-1.643-.974-2.455-1.787-.813-.812-1.373-1.587-1.787-2.455-.409-.86-.66-1.78-.884-2.856-.199-.948-.194-2.138-.149-3.047a24.58 24.58 0 0 1 .134-1.607l.004-.026V5.905s.001-.001.745.095l-.744-.096.085-.654Zm1.335 1.5c-.022.245-.044.543-.06.87-.044.888-.039 1.918.118 2.667.216 1.034.438 1.818.77 2.518.33.69.782 1.329 1.493 2.04.711.71 1.35 1.163 2.04 1.492.7.333 1.484.555 2.518.771.75.157 1.779.162 2.666.118.327-.016.626-.038.87-.06v-1.83a1.25 1.25 0 0 0-.854-1.186l-1.076-.358a2.452 2.452 0 0 1-3.776.135l-1.438-1.618a2.58 2.58 0 0 1 .126-3.56l-.382-1.144a1.25 1.25 0 0 0-1.185-.855h-1.83Z" clip-rule="evenodd"/>
</g>
<g id="profile">
<path d="M9.25 9.4c0-1.475 1.22-2.692 2.75-2.692s2.75 1.217 2.75 2.693c0 1.475-1.22 2.692-2.75 2.692s-2.75-1.217-2.75-2.692ZM12 5.209c-2.335 0-4.25 1.866-4.25 4.193 0 2.327 1.915 4.192 4.25 4.192s4.25-1.865 4.25-4.192S14.334 5.208 12 5.208ZM8.375 18.666a2.692 2.692 0 0 1 2.692-2.693h1.865a2.692 2.692 0 0 1 2.692 2.693h1.5a4.192 4.192 0 0 0-4.192-4.193h-1.865a4.192 4.192 0 0 0-4.192 4.193h1.5Z" clip-rule="evenodd"/>
</g>
<g id="wish">
<path fill="none" stroke="currentColor" stroke-width="1.5" d="M17.92 7.06a3.69 3.69 0 0 0-1.195-.784 3.74 3.74 0 0 0-4.015.785l-.71.698-.71-.698A3.718 3.718 0 0 0 8.685 6c-.978 0-1.915.38-2.606 1.06A3.59 3.59 0 0 0 5 9.62c0 .96.388 1.882 1.08 2.56l.71.698L12 18l5.21-5.12.71-.698c.343-.337.614-.736.8-1.175a3.565 3.565 0 0 0 0-2.771 3.617 3.617 0 0 0-.8-1.175Z"/>
</g>
<g id="right-arrow">
<rect width="14.5" height="14.5" x=".992" y=".75" stroke="currentColor" fill="none" stroke-width="1.5" rx="7.25"/><path fill="currentColor" fill-rule="evenodd" d="M6.957 11.53a.75.75 0 0 1 0-1.06L9.427 8l-2.47-2.47a.75.75 0 1 1 1.06-1.06l3 3a.75.75 0 0 1 0 1.06l-3 3a.75.75 0 0 1-1.06 0Z" clip-rule="evenodd"/>
</g>
<g id="favorite">
<path d="M16.84 3c-1.747 0-3.278.779-4.429 2.253-.153.196-.29.393-.411.583a7.445 7.445 0 0 0-.411-.583C10.439 3.779 8.907 3 7.16 3 3.86 3 1.5 5.763 1.5 9.079c0 3.79 3.107 7.364 10.075 11.585a.82.82 0 0 0 .85 0C19.393 16.443 22.5 12.87 22.5 9.079 22.5 5.765 20.142 3 16.84 3Z"/>
</g>
<g id="cross">
<path fill="#21242E" fill-rule="evenodd" d="m13.06 12 6.541-6.54-1.06-1.061L12 10.939 5.46 4.4l-1.061 1.06L10.939 12 4.4 18.54l1.06 1.062L12 13.06l6.54 6.54 1.061-1.06-6.54-6.54Z" clip-rule="evenodd"/>
</g>
</defs>
</svg>